<svg width="163" height="101" viewBox="0 0 163 101" fill="none" xmlns="http://www.w3.org/2000/svg">
<path d="M29.0098 66L12.1138 61.392L15.0898 50.256V16.08L12.1138 15.312L15.8578 1.296L31.7938 5.616L33.1378 0.527996L56.9458 7.056L53.3938 20.4V41.424L38.8978 49.872L29.5858 47.28V51.12L32.7538 51.984L29.0098 66ZM31.1218 32.592L38.8978 34.8V17.136L30.3538 14.832L29.5858 17.808V38.352L31.1218 32.592ZM79.9925 67.632L53.1125 60.336L56.9525 46.32L59.2565 46.896V18.96H70.6805L57.2405 15.312L61.0805 1.296L95.3525 10.704V30L87.7685 32.112L95.3525 34.224V58.704L79.9925 67.632ZM75.6725 28.752L80.8565 30.192V21.744L73.7525 19.824V35.856L75.6725 28.752ZM73.7525 49.584H68.8565L80.8565 52.848V45.264L73.7525 43.344V49.584ZM124.702 67.824L96.7662 60.24L100.318 46.416L102.718 47.088V18.96H114.142L100.702 15.312L104.542 1.296L141.022 11.28L137.278 25.296L117.214 19.824V49.872H112.414L123.55 53.136L131.23 51.024V46.896H138.43L124.126 45.456L125.47 31.056L150.91 33.456L149.566 47.952L145.726 47.568V70.8H131.23V66L124.702 67.824Z" fill="black"/>
<path d="M23.2551 99.36C21.3351 99.36 19.8831 98.82 18.8991 97.74C17.9151 96.636 17.4231 95.064 17.4231 93.024V91.584H21.1671V93.312C21.1671 94.944 21.8511 95.76 23.2191 95.76C23.8911 95.76 24.3951 95.568 24.7311 95.184C25.0911 94.776 25.2711 94.128 25.2711 93.24C25.2711 92.184 25.0311 91.26 24.5511 90.468C24.0711 89.652 23.1831 88.68 21.8871 87.552C20.2551 86.112 19.1151 84.816 18.4671 83.664C17.8191 82.488 17.4951 81.168 17.4951 79.704C17.4951 77.712 17.9991 76.176 19.0071 75.096C20.0151 73.992 21.4791 73.44 23.3991 73.44C25.2951 73.44 26.7231 73.992 27.6831 75.096C28.6671 76.176 29.1591 77.736 29.1591 79.776V80.82H25.4151V79.524C25.4151 78.66 25.2471 78.036 24.9111 77.652C24.5751 77.244 24.0831 77.04 23.4351 77.04C22.1151 77.04 21.4551 77.844 21.4551 79.452C21.4551 80.364 21.6951 81.216 22.1751 82.008C22.6791 82.8 23.5791 83.76 24.8751 84.888C26.5311 86.328 27.6711 87.636 28.2951 88.812C28.9191 89.988 29.2311 91.368 29.2311 92.952C29.2311 95.016 28.7151 96.6 27.6831 97.704C26.6751 98.808 25.1991 99.36 23.2551 99.36ZM52.2016 99.36C50.3056 99.36 48.8536 98.82 47.8456 97.74C46.8616 96.66 46.3696 95.136 46.3696 93.168V79.632C46.3696 77.664 46.8616 76.14 47.8456 75.06C48.8536 73.98 50.3056 73.44 52.2016 73.44C54.0976 73.44 55.5376 73.98 56.5216 75.06C57.5296 76.14 58.0336 77.664 58.0336 79.632V82.296H54.2896V79.38C54.2896 77.82 53.6296 77.04 52.3096 77.04C50.9896 77.04 50.3296 77.82 50.3296 79.38V93.456C50.3296 94.992 50.9896 95.76 52.3096 95.76C53.6296 95.76 54.2896 94.992 54.2896 93.456V89.604H58.0336V93.168C58.0336 95.136 57.5296 96.66 56.5216 97.74C55.5376 98.82 54.0976 99.36 52.2016 99.36ZM81.3172 99.36C79.3732 99.36 77.8852 98.808 76.8532 97.704C75.8212 96.6 75.3052 95.04 75.3052 93.024V79.776C75.3052 77.76 75.8212 76.2 76.8532 75.096C77.8852 73.992 79.3732 73.44 81.3172 73.44C83.2612 73.44 84.7492 73.992 85.7812 75.096C86.8132 76.2 87.3292 77.76 87.3292 79.776V93.024C87.3292 95.04 86.8132 96.6 85.7812 97.704C84.7492 98.808 83.2612 99.36 81.3172 99.36ZM81.3172 95.76C82.6852 95.76 83.3692 94.932 83.3692 93.276V79.524C83.3692 77.868 82.6852 77.04 81.3172 77.04C79.9492 77.04 79.2652 77.868 79.2652 79.524V93.276C79.2652 94.932 79.9492 95.76 81.3172 95.76ZM105.127 73.8H110.995C113.035 73.8 114.523 74.28 115.459 75.24C116.395 76.176 116.863 77.628 116.863 79.596V81.144C116.863 83.76 115.999 85.416 114.271 86.112V86.184C115.231 86.472 115.903 87.06 116.287 87.948C116.695 88.836 116.899 90.024 116.899 91.512V95.94C116.899 96.66 116.923 97.248 116.971 97.704C117.019 98.136 117.139 98.568 117.331 99H113.299C113.155 98.592 113.059 98.208 113.011 97.848C112.963 97.488 112.939 96.84 112.939 95.904V91.296C112.939 90.144 112.747 89.34 112.363 88.884C112.003 88.428 111.367 88.2 110.455 88.2H109.087V99H105.127V73.8ZM110.527 84.6C111.319 84.6 111.907 84.396 112.291 83.988C112.699 83.58 112.903 82.896 112.903 81.936V79.992C112.903 79.08 112.735 78.42 112.399 78.012C112.087 77.604 111.583 77.4 110.887 77.4H109.087V84.6H110.527ZM134.767 73.8L145.567 73.8V77.4L138.727 77.4V84.06L144.163 84.06V87.66L138.727 87.66V95.4H145.567V99H134.767V73.8Z" fill="black"/>
</svg>
